<?xml version="1.0" encoding="utf-8"?>
<!-- Generator: Adobe Illustrator 25.3.1, SVG Export Plug-In . SVG Version: 6.00 Build 0)  -->
<svg version="1.1" id="Layer_1" xmlns="http://www.w3.org/2000/svg" xmlns:xlink="http://www.w3.org/1999/xlink" x="0px" y="0px"
	 viewBox="0 0 2000 2000" style="enable-background:new 0 0 2000 2000;" xml:space="preserve">
<style type="text/css">
	.st0{fill:#ED8544;}
	.st1{fill:#52EEF9;}
	.st2{fill:#FFFFFF;}
</style>
<path class="st0" d="M903.93,777.75c312.61-160.28,486.58-497.45,504.51-526.15c15.86-25.37,21.62-31.9,45.29-25.66
	c23.67,6.24,21.86,19.78,20.75,28.06c-1.11,8.28-40.05,418.96-41.72,437.12c-1.67,18.16-21.16,144.22-40.21,142.81l13-26
	c-3.91-0.29-21.63,18.1-22,22l-0.57,137.25c-0.85,6.06-1.83,13.57-2.65,20.94c-1.61,14.5-40.88,22.33-50.54,24.04
	c-1.38,0.24-2.79,0.08-4.08-0.47l-231.09-98.48c-0.18-0.08-0.36-0.16-0.53-0.25C1085.88,908.62,876.23,791.95,903.93,777.75z"/>
<path class="st1" d="M1449.25,1399.16c0.66-4.36,1.2-10.79,1.45-18.95c0.33-10.72,1.99-21.35,4.78-31.7
	c3.92-14.5,6.49-29.8,9.17-45.83c3.58-21.4,3.45-43.25-0.44-64.59c-11.37-62.5-21.43-142.48-39.63-193.77
	c-44.95-126.7-29.62-203.82,61.03-324.83c-99.16,21.1-151.81,89.78-216.52,166.72c29.18-132.78-41.92-208.06-112.8-281.17
	c-71.06-73.29-118.92-155.6-122.68-259.52c-2.6-71.67,25.02-137.82,46.23-208.45c-217.59,61.48-314.89,228.59-262.05,440.78
	c15.63,62.76,34.63,124.92,19.17,190.79c-8.95,38.12-27.67,66.5-70.25,66.16c-37.05-0.3-69.14-25.43-79.12-61.11
	c-6.48-23.15-10.81-46.73-17.58-76.79c-52.48,87.66-50.73,180.52-59.59,276.08c-44.09-37.08-80.74-70.09-134.81-78.4
	c11.26,39.46,21.66,75.89,31.96,111.98c2.58,9.04,4.2,18.32,4.84,27.7c7.17,104.31,13.99,120.19-20.4,345.44
	c-2.24,14.7-1.56,26.82,1.56,36.86c-21.39,11.22-34.87,29.11-41.99,46c-8.8,20.88-11.44,69.7,21.33,89.82
	c55.7,50.41,73.76,91.87,55.86,152.83c-21.02,71.59-71.74,138.1,3.59,156.03c62.91,14.98,56.42-72.76,57.19-122.36
	c0.7-45.62,35.25-82.43,66.62-91.6c35.37-2.28,112.53-12.37,148.18,35.06c37.34,49.69,98.2,84.16,153.39,90.85
	c55.19,6.69,78.07-3.19,148.42-47.05c70.35-43.87,70.46-14.95,143.67-7.88c73.21,7.06,94.58-49.96,99.11-87.35
	c4.53-37.39,22.77-38.79,55.95-29.35c33.18,9.44,111.52,18.93,144.16-71.06C1581.66,1440.49,1449.25,1399.16,1449.25,1399.16z"/>
<g>
	<g>
		<ellipse cx="881.32" cy="1166.37" rx="57.43" ry="115.56"/>
		<ellipse class="st2" cx="899.53" cy="1128.55" rx="25.21" ry="34.32"/>
	</g>
	<g>
		<ellipse cx="1118.91" cy="1166.37" rx="57.43" ry="115.56"/>
		<ellipse class="st2" cx="1137.12" cy="1128.55" rx="25.21" ry="34.32"/>
	</g>
</g>
<path class="st1" d="M579.87,1679.2c0,0-66.36,111.19-60.98,136.3c5.38,25.11,36.63,32.28,45.22,0S554.76,1752.73,579.87,1679.2z"/>
<g>
</g>
<g>
</g>
<g>
</g>
<g>
</g>
<g>
</g>
<g>
</g>
<g>
</g>
<g>
</g>
<g>
</g>
<g>
</g>
<g>
</g>
<g>
</g>
<g>
</g>
<g>
</g>
<g>
</g>
</svg>
